HIERARCHY
ROOT hip
{
  OFFSET 0 90.174 2.4664
  CHANNELS 6 Xposition Yposition Zposition Zrotation Xrotation Yrotation
  JOINT abdomen
  {
    OFFSET 0 -1.186 -1.5018
    CHANNELS 6 Xposition Yposition Zposition Zrotation Xrotation Yrotation
    JOINT abdomen2
    {
      OFFSET 0 9.964 0.2134
      CHANNELS 6 Xposition Yposition Zposition Zrotation Xrotation Yrotation
      JOINT chest
      {
        OFFSET 0 13.134 -3.2573
        CHANNELS 6 Xposition Yposition Zposition Zrotation Xrotation Yrotation
        JOINT neck
        {
          OFFSET 0 20.686 -1.6905
          CHANNELS 6 Xposition Yposition Zposition Zrotation Xrotation Yrotation
          JOINT head
          {
            OFFSET 0 7.238 -0.1237
            CHANNELS 6 Xposition Yposition Zposition Zrotation Xrotation Yrotation
            End Site
            {
              OFFSET 0 0 0
            }
          }
        }
        JOINT lCollar
        {
          OFFSET 1.7069 20.075 5.0056
          CHANNELS 6 Xposition Yposition Zposition Zrotation Xrotation Yrotation
          JOINT lShldr
          {
            OFFSET 13.6458 -0.047 -4.849
            CHANNELS 6 Xposition Yposition Zposition Zrotation Xrotation Yrotation
            JOINT lForeArm
            {
              OFFSET 28.3255 -0.9759 2.2888
              CHANNELS 6 Xposition Yposition Zposition Zrotation Xrotation Yrotation
              JOINT lHand
              {
                OFFSET 22.1583 -0.53 10.8316
                CHANNELS 6 Xposition Yposition Zposition Zrotation Xrotation Yrotation
                JOINT lThumb1
                {
                  OFFSET 0.786 0.112 2.5817
                  CHANNELS 6 Xposition Yposition Zposition Zrotation Xrotation Yrotation
                  JOINT lThumb2
                  {
                    OFFSET 0.3601 -0.878 4.2331
                    CHANNELS 6 Xposition Yposition Zposition Zrotation Xrotation Yrotation
                    JOINT lThumb2_End
                    {
                      OFFSET 1.8127 -1.216 2.2227
                      CHANNELS 6 Xposition Yposition Zposition Zrotation Xrotation Yrotation
                      End Site
                      {
                        OFFSET 0.0181 -0.0122 0.0222
                      }
                    }
                  }
                }
                JOINT lCarpal1
                {
                  OFFSET 0.9571 1.114 1.7695
                  CHANNELS 6 Xposition Yposition Zposition Zrotation Xrotation Yrotation
                  JOINT lIndex1
                  {
                    OFFSET 4.1246 0.487 4.1451
                    CHANNELS 6 Xposition Yposition Zposition Zrotation Xrotation Yrotation
                    JOINT lIndex2
                    {
                      OFFSET 3.4052 -1.454 2.7682
                      CHANNELS 6 Xposition Yposition Zposition Zrotation Xrotation Yrotation
                      JOINT lIndex2_End
                      {
                        OFFSET 1.4531 -1.795 1.2713
                        CHANNELS 6 Xposition Yposition Zposition Zrotation Xrotation Yrotation
                        End Site
                        {
                          OFFSET 0.0145 -0.0179 0.0127
                        }
                      }
                    }
                  }
                  JOINT lMid1
                  {
                    OFFSET 5.6954 0.21 2.1184
                    CHANNELS 6 Xposition Yposition Zposition Zrotation Xrotation Yrotation
                    JOINT lMid2
                    {
                      OFFSET 3.9766 -1.54 2.3863
                      CHANNELS 6 Xposition Yposition Zposition Zrotation Xrotation Yrotation
                      JOINT lMid2_End
                      {
                        OFFSET 1.4042 -1.926 1.125
                        CHANNELS 6 Xposition Yposition Zposition Zrotation Xrotation Yrotation
                        End Site
                        {
                          OFFSET 0.014 -0.0193 0.0113
                        }
                      }
                    }
                  }
                }
                JOINT lCarpal2
                {
                  OFFSET 2.0956 0.66 -0.3894
                  CHANNELS 6 Xposition Yposition Zposition Zrotation Xrotation Yrotation
                  JOINT lRing1
                  {
                    OFFSET 5.0395 -0.09 2.4971
                    CHANNELS 6 Xposition Yposition Zposition Zrotation Xrotation Yrotation
                    JOINT lRing2
                    {
                      OFFSET 3.7921 -1.552 1.4806
                      CHANNELS 6 Xposition Yposition Zposition Zrotation Xrotation Yrotation
                      JOINT lRing2_End
                      {
                        OFFSET 1.4655 -1.808 0.9609
                        CHANNELS 6 Xposition Yposition Zposition Zrotation Xrotation Yrotation
                        End Site
                        {
                          OFFSET 0.0147 -0.0181 0.0096
                        }
                      }
                    }
                  }
                  JOINT lPinky1
                  {
                    OFFSET 4.9141 -1.269 0.3591
                    CHANNELS 6 Xposition Yposition Zposition Zrotation Xrotation Yrotation
                    JOINT lPinky2
                    {
                      OFFSET 3.1477 -1.685 0.8462
                      CHANNELS 6 Xposition Yposition Zposition Zrotation Xrotation Yrotation
                      JOINT lPinky2_End
                      {
                        OFFSET 0.8055 -1.585 0.7955
                        CHANNELS 6 Xposition Yposition Zposition Zrotation Xrotation Yrotation
                        End Site
                        {
                          OFFSET 0.0081 -0.0158 0.008
                        }
                      }
                    }
                  }
                }
              }
            }
          }
        }
        JOINT rCollar
        {
          OFFSET -1.7069 20.075 5.0056
          CHANNELS 6 Xposition Yposition Zposition Zrotation Xrotation Yrotation
          JOINT rShldr
          {
            OFFSET -13.6458 -0.047 -4.849
            CHANNELS 6 Xposition Yposition Zposition Zrotation Xrotation Yrotation
            JOINT rForeArm
            {
              OFFSET -28.3255 -0.9759 2.2888
              CHANNELS 6 Xposition Yposition Zposition Zrotation Xrotation Yrotation
              JOINT rHand
              {
                OFFSET -22.1583 -0.53 10.8316
                CHANNELS 6 Xposition Yposition Zposition Zrotation Xrotation Yrotation
                JOINT rThumb1
                {
                  OFFSET -0.786 0.112 2.5817
                  CHANNELS 6 Xposition Yposition Zposition Zrotation Xrotation Yrotation
                  JOINT rThumb2
                  {
                    OFFSET -0.3601 -0.878 4.2331
                    CHANNELS 6 Xposition Yposition Zposition Zrotation Xrotation Yrotation
                    JOINT rThumb2_End
                    {
                      OFFSET -1.8127 -1.216 2.2227
                      CHANNELS 6 Xposition Yposition Zposition Zrotation Xrotation Yrotation
                      End Site
                      {
                        OFFSET -0.0181 -0.0122 0.0222
                      }
                    }
                  }
                }
                JOINT rCarpal1
                {
                  OFFSET -0.9571 1.114 1.7695
                  CHANNELS 6 Xposition Yposition Zposition Zrotation Xrotation Yrotation
                  JOINT rIndex1
                  {
                    OFFSET -4.1246 0.487 4.1451
                    CHANNELS 6 Xposition Yposition Zposition Zrotation Xrotation Yrotation
                    JOINT rIndex2
                    {
                      OFFSET -3.4052 -1.454 2.7682
                      CHANNELS 6 Xposition Yposition Zposition Zrotation Xrotation Yrotation
                      JOINT rIndex2_End
                      {
                        OFFSET -1.4531 -1.795 1.2713
                        CHANNELS 6 Xposition Yposition Zposition Zrotation Xrotation Yrotation
                        End Site
                        {
                          OFFSET -0.0145 -0.018 0.0127
                        }
                      }
                    }
                  }
                  JOINT rMid1
                  {
                    OFFSET -5.6954 0.21 2.1184
                    CHANNELS 6 Xposition Yposition Zposition Zrotation Xrotation Yrotation
                    JOINT rMid2
                    {
                      OFFSET -3.9766 -1.54 2.3863
                      CHANNELS 6 Xposition Yposition Zposition Zrotation Xrotation Yrotation
                      JOINT rMid2_End
                      {
                        OFFSET -1.4042 -1.926 1.125
                        CHANNELS 6 Xposition Yposition Zposition Zrotation Xrotation Yrotation
                        End Site
                        {
                          OFFSET -0.014 -0.0193 0.0113
                        }
                      }
                    }
                  }
                }
                JOINT rCarpal2
                {
                  OFFSET -2.0956 0.66 -0.3894
                  CHANNELS 6 Xposition Yposition Zposition Zrotation Xrotation Yrotation
                  JOINT rRing1
                  {
                    OFFSET -5.0395 -0.09 2.4971
                    CHANNELS 6 Xposition Yposition Zposition Zrotation Xrotation Yrotation
                    JOINT rRing2
                    {
                      OFFSET -3.7921 -1.552 1.4806
                      CHANNELS 6 Xposition Yposition Zposition Zrotation Xrotation Yrotation
                      JOINT rRing2_End
                      {
                        OFFSET -1.4655 -1.808 0.9609
                        CHANNELS 6 Xposition Yposition Zposition Zrotation Xrotation Yrotation
                        End Site
                        {
                          OFFSET -0.0147 -0.0181 0.0096
                        }
                      }
                    }
                  }
                  JOINT rPinky1
                  {
                    OFFSET -4.9141 -1.269 0.3592
                    CHANNELS 6 Xposition Yposition Zposition Zrotation Xrotation Yrotation
                    JOINT rPinky2
                    {
                      OFFSET -3.1477 -1.685 0.8462
                      CHANNELS 6 Xposition Yposition Zposition Zrotation Xrotation Yrotation
                      JOINT rPinky2_End
                      {
                        OFFSET -0.8055 -1.585 0.7955
                        CHANNELS 6 Xposition Yposition Zposition Zrotation Xrotation Yrotation
                        End Site
                        {
                          OFFSET -0.0081 -0.0158 0.008
                        }
                      }
                    }
                  }
                }
              }
            }
          }
        }
      }
    }
  }
  JOINT lThigh
  {
    OFFSET 8.367 -8.2066 0.5982
    CHANNELS 6 Xposition Yposition Zposition Zrotation Xrotation Yrotation
    JOINT lShin
    {
      OFFSET 2.1923 -43.463 -0.4932
      CHANNELS 6 Xposition Yposition Zposition Zrotation Xrotation Yrotation
      JOINT lFoot
      {
        OFFSET 0.7333 -45.8593 -2.6451
        CHANNELS 6 Xposition Yposition Zposition Zrotation Xrotation Yrotation
        End Site
        {
          OFFSET 2.6618 -4.2699 12.3931
        }
      }
    }
  }
  JOINT rThigh
  {
    OFFSET -8.367 -8.2066 0.5982
    CHANNELS 6 Xposition Yposition Zposition Zrotation Xrotation Yrotation
    JOINT rShin
    {
      OFFSET -2.1923 -43.463 -0.4931
      CHANNELS 6 Xposition Yposition Zposition Zrotation Xrotation Yrotation
      JOINT rFoot
      {
        OFFSET -0.7333 -45.8593 -2.6451
        CHANNELS 6 Xposition Yposition Zposition Zrotation Xrotation Yrotation
        End Site
        {
          OFFSET -2.6618 -4.2699 12.3931
        }
      }
    }
  }
}
MOTION
Frames:	4
Frame Time:	0.0333333
0 90.174 2.4664 0 0 -0 0 -1.186 -1.5018 0 0 -0 0 9.964 0.2134 0 0 -0 0 13.134 -3.2573 0 0 -0 0 20.686 -1.6905 0 0 -0 0 7.238 -0.1237 0 0 -0 1.7069 20.075 5.0056 0 0 -0 13.6458 -0.047 -4.849 1.66051 0.0835086 5.75766 28.3255 -0.9759 2.2888 -0.0175111 0.895433 15.7816 22.1583 -0.53 10.8316 7.95139e-016 -1.98785e-016 -0 0.786 0.112 2.5817 5.46658e-016 -3.97569e-016 -0 0.3601 -0.878 4.2331 5.96354e-016 0 -0 1.8127 -1.216 2.2227 3.97569e-016 1.98785e-016 9.54166e-015 0.9571 1.114 1.7695 1.49089e-016 -3.97569e-016 -0 4.1246 0.487 4.1451 6.4605e-016 0 3.18055e-015 3.4052 -1.454 2.7682 5.96354e-016 0 3.18055e-015 1.4531 -1.795 1.2713 8.94531e-016 -1.98785e-016 6.36111e-015 5.6954 0.21 2.1184 6.4605e-016 0 3.18055e-015 3.9766 -1.54 2.3863 5.96354e-016 0 3.18055e-015 1.4042 -1.926 1.125 8.94531e-016 -1.98785e-016 6.36111e-015 2.0956 0.66 -0.3894 1.49089e-016 -3.97569e-016 -0 5.0395 -0.09 2.4971 6.4605e-016 0 3.18055e-015 3.7921 -1.552 1.4806 5.96354e-016 0 3.18055e-015 1.4655 -1.808 0.9609 8.94531e-016 -1.98785e-016 6.36111e-015 4.9141 -1.269 0.3591 6.4605e-016 0 3.18055e-015 3.1477 -1.685 0.8462 5.96354e-016 0 3.18055e-015 0.8055 -1.585 0.7955 8.94531e-016 -1.98785e-016 6.36111e-015 -1.7069 20.075 5.0056 0 0 -0 -13.6458 -0.047 -4.849 -1.4496 0.0636048 -5.0245 -28.3255 -0.9759 2.2888 -1.74811 1.20616 -16.8394 -22.1583 -0.53 10.8316 -1.19271e-015 1.98785e-016 -3.18055e-015 -0.786 0.112 2.5817 -3.97569e-016 1.98785e-016 -3.18055e-015 -0.3601 -0.878 4.2331 -2.98177e-016 1.98785e-016 -3.18055e-015 -1.8127 -1.216 2.2227 -2.98177e-016 3.97569e-016 -0 -0.9571 1.114 1.7695 4.96962e-016 0 -6.36111e-015 -4.1246 0.487 4.1451 -9.93923e-017 3.97569e-016 -0 -3.4052 -1.454 2.7682 -8.94531e-016 5.96354e-016 -0 -1.4531 -1.795 1.2713 -3.97569e-016 3.97569e-016 -0 -5.6954 0.21 2.1184 -9.93923e-017 3.97569e-016 -0 -3.9766 -1.54 2.3863 -8.94531e-016 5.96354e-016 -0 -1.4042 -1.926 1.125 -3.97569e-016 3.97569e-016 -0 -2.0956 0.66 -0.3894 4.96962e-016 0 -6.36111e-015 -5.0395 -0.09 2.4971 -9.93923e-017 3.97569e-016 -0 -3.7921 -1.552 1.4806 -8.94531e-016 5.96354e-016 -0 -1.4655 -1.808 0.9609 -3.97569e-016 3.97569e-016 -0 -4.9141 -1.269 0.3592 -9.93923e-017 3.97569e-016 -0 -3.1477 -1.685 0.8462 -8.94531e-016 5.96354e-016 -0 -0.8055 -1.585 0.7955 -3.97569e-016 3.97569e-016 -0 8.367 -8.2066 0.5982 -4.66115 -1.03232 0.120763 2.1923 -43.463 -0.4932 0.00990601 1.55097 0.177175 0.7333 -45.8593 -2.6451 4.65196 -0.54114 -0.255042 -8.367 -8.2066 0.5982 4.66115 -1.03222 -0.120763 -2.1923 -43.463 -0.4931 -0.00990459 1.5509 -0.177176 -0.7333 -45.8593 -2.6451 -4.65196 -0.541171 0.255041 
-0.854228 -2.03275 -8.35216 -180 -78.9819 -180 0 -1.186 -1.5018 0.120305 1.02537 -0.27165 -1.11022e-016 9.964 0.2134 0.24553 2.05013 -0.545584 -1.11022e-016 13.134 -3.2573 0.24553 2.05014 -0.545584 -3.33067e-016 20.686 -1.6905 12 -0.979273 0.206605 0 7.238 -0.1237 10.9996 1.69094e-005 -3.59135e-006 1.7069 20.075 5.0056 -1.69041 -4.24042 -2.02787 13.6458 -0.047 -4.849 -77.7949 2.01002 -8.59653 28.3255 -0.9759 2.2888 0.778211 7.80363 -25.7215 22.1583 -0.53 10.8316 -43.4047 19.7945 16.8368 0.786 0.112 2.5817 1.19271e-015 4.77083e-015 -9.54166e-015 0.3601 -0.878 4.2331 -3.18055e-015 4.57205e-015 -1.27222e-014 1.8127 -1.216 2.2227 4.77083e-015 2.38542e-015 -3.18055e-015 0.9571 1.114 1.7695 -3.97569e-016 2.98177e-015 -6.36111e-015 4.1246 0.487 4.1451 -3.18055e-015 9.14409e-015 -1.27222e-014 3.4052 -1.454 2.7682 -2.38542e-015 9.14409e-015 -6.36111e-015 1.4531 -1.795 1.2713 5.1684e-015 1.39149e-015 -6.36111e-015 5.6954 0.21 2.1184 -3.18055e-015 9.14409e-015 -1.27222e-014 3.9766 -1.54 2.3863 -2.38542e-015 9.14409e-015 -6.36111e-015 1.4042 -1.926 1.125 5.1684e-015 1.39149e-015 -6.36111e-015 2.0956 0.66 -0.3894 -3.97569e-016 2.98177e-015 -6.36111e-015 5.0395 -0.09 2.4971 -3.18055e-015 9.14409e-015 -1.27222e-014 3.7921 -1.552 1.4806 -2.38542e-015 9.14409e-015 -6.36111e-015 1.4655 -1.808 0.9609 5.1684e-015 1.39149e-015 -6.36111e-015 4.9141 -1.269 0.3591 -3.18055e-015 9.14409e-015 -1.27222e-014 3.1477 -1.685 0.8462 -2.38542e-015 9.14409e-015 -6.36111e-015 0.8055 -1.585 0.7955 5.1684e-015 1.39149e-015 -6.36111e-015 -1.7069 20.075 5.0056 -15.1708 -5.977 14.2767 -13.6458 -0.047 -4.849 66.5787 -3.19419 18.453 -28.3255 -0.9759 2.2888 3.15466 15.2828 60.9214 -22.1583 -0.53 10.8316 59.7574 17.9237 10.4734 -0.786 0.112 2.5817 -1.36761e-008 1.66928e-006 -7.05532e-007 -0.3601 -0.878 4.2331 7.9283e-007 2.47575e-007 1.97498e-007 -1.8127 -1.216 2.2227 3.96415e-007 1.23787e-007 9.87488e-008 -0.9571 1.114 1.7695 -3.18055e-015 6.36111e-015 6.36111e-015 -4.1246 0.487 4.1451 -1.36761e-008 1.66928e-006 -7.05532e-007 -3.4052 -1.454 2.7682 7.9283e-007 2.47575e-007 1.97498e-007 -1.4531 -1.795 1.2713 3.96415e-007 1.23787e-007 9.87488e-008 -5.6954 0.21 2.1184 -1.36761e-008 1.66928e-006 -7.05532e-007 -3.9766 -1.54 2.3863 7.9283e-007 2.47575e-007 1.97498e-007 -1.4042 -1.926 1.125 3.96415e-007 1.23787e-007 9.87488e-008 -2.0956 0.66 -0.3894 -3.18055e-015 6.36111e-015 6.36111e-015 -5.0395 -0.09 2.4971 -1.36761e-008 1.66928e-006 -7.05532e-007 -3.7921 -1.552 1.4806 7.9283e-007 2.47575e-007 1.97498e-007 -1.4655 -1.808 0.9609 3.96415e-007 1.23787e-007 9.87488e-008 -4.9141 -1.269 0.3592 -1.36761e-008 1.66928e-006 -7.05532e-007 -3.1477 -1.685 0.8462 7.9283e-007 2.47575e-007 1.97498e-007 -0.8055 -1.585 0.7955 3.96415e-007 1.23787e-007 9.87488e-008 8.367 -8.2066 0.5982 10.6278 -23.6909 13.0335 2.1923 -43.463 -0.4932 -65.0069 77.0842 73.6089 0.7333 -45.8593 -2.6451 -0.540199 33.6001 7.39338 -8.367 -8.2066 0.5982 -13.4768 -21.7987 -10.7315 -2.1923 -43.463 -0.4931 45.4548 73.1201 -54.6411 -0.7333 -45.8593 -2.6451 1.24122 39.7203 -4.30425 
-0.853455 -1.72623 -8.23987 -180 -79.6484 -180 0 -1.186 -1.5018 0.122513 0.926937 -0.275206 1.11022e-016 9.964 0.2134 0.249528 1.85324 -0.552503 -2.22045e-016 13.134 -3.2573 0.249528 1.85322 -0.552503 -1.11022e-016 20.686 -1.6905 12.4996 -0.976861 0.215057 -1.77636e-015 7.238 -0.1237 10.9997 -0.272756 0.0529087 1.7069 20.075 5.0056 -1.42093 -3.80076 -1.67576 13.6458 -0.047 -4.849 -77.8809 2.09866 -8.31396 28.3255 -0.9759 2.2888 0.742681 7.88282 -27.1202 22.1583 -0.53 10.8316 -43.5042 19.4863 17.1772 0.786 0.112 2.5817 1.62209e-007 -1.16924e-006 1.03842e-006 0.3601 -0.878 4.2331 -1.62209e-007 1.16924e-006 -1.03842e-006 1.8127 -1.216 2.2227 1.62209e-007 -1.16924e-006 1.03842e-006 0.9571 1.114 1.7695 -0 -5.56597e-015 -0 4.1246 0.487 4.1451 1.62209e-007 -1.16924e-006 1.03842e-006 3.4052 -1.454 2.7682 -1.62209e-007 1.16924e-006 -1.03842e-006 1.4531 -1.795 1.2713 1.62209e-007 -1.16924e-006 1.03842e-006 5.6954 0.21 2.1184 1.62209e-007 -1.16924e-006 1.03842e-006 3.9766 -1.54 2.3863 -1.62209e-007 1.16924e-006 -1.03842e-006 1.4042 -1.926 1.125 1.62209e-007 -1.16924e-006 1.03842e-006 2.0956 0.66 -0.3894 -0 -5.56597e-015 -0 5.0395 -0.09 2.4971 1.62209e-007 -1.16924e-006 1.03842e-006 3.7921 -1.552 1.4806 -1.62209e-007 1.16924e-006 -1.03842e-006 1.4655 -1.808 0.9609 1.62209e-007 -1.16924e-006 1.03842e-006 4.9141 -1.269 0.3591 1.62209e-007 -1.16924e-006 1.03842e-006 3.1477 -1.685 0.8462 -1.62209e-007 1.16924e-006 -1.03842e-006 0.8055 -1.585 0.7955 1.62209e-007 -1.16924e-006 1.03842e-006 -1.7069 20.075 5.0056 -15.7206 -6.84938 13.5438 -13.6458 -0.047 -4.849 67.08 -2.8854 18.3456 -28.3255 -0.9759 2.2888 3.21516 15.6159 61.2657 -22.1583 -0.53 10.8316 59.5524 16.9509 10.2762 -0.786 0.112 2.5817 -3.96411e-007 -1.24383e-007 -9.78971e-008 -0.3601 -0.878 4.2331 -1.20445e-006 -4.30466e-007 -1.54886e-006 -1.8127 -1.216 2.2227 -3.96411e-007 -1.24383e-007 -9.78971e-008 -0.9571 1.114 1.7695 3.18055e-015 -3.18055e-015 6.36111e-015 -4.1246 0.487 4.1451 -3.96411e-007 -1.24383e-007 -9.78971e-008 -3.4052 -1.454 2.7682 -1.20445e-006 -4.30466e-007 -1.54886e-006 -1.4531 -1.795 1.2713 -3.96411e-007 -1.24383e-007 -9.78971e-008 -5.6954 0.21 2.1184 -3.96411e-007 -1.24383e-007 -9.78971e-008 -3.9766 -1.54 2.3863 -1.20445e-006 -4.30466e-007 -1.54886e-006 -1.4042 -1.926 1.125 -3.96411e-007 -1.24383e-007 -9.78971e-008 -2.0956 0.66 -0.3894 3.18055e-015 -3.18055e-015 6.36111e-015 -5.0395 -0.09 2.4971 -3.96411e-007 -1.24383e-007 -9.78971e-008 -3.7921 -1.552 1.4806 -1.20445e-006 -4.30466e-007 -1.54886e-006 -1.4655 -1.808 0.9609 -3.96411e-007 -1.24383e-007 -9.78971e-008 -4.9141 -1.269 0.3592 -3.96411e-007 -1.24383e-007 -9.78971e-008 -3.1477 -1.685 0.8462 -1.20445e-006 -4.30466e-007 -1.54886e-006 -0.8055 -1.585 0.7955 -3.96411e-007 -1.24383e-007 -9.78971e-008 8.367 -8.2066 0.5982 10.6158 -24.244 13.0338 2.1923 -43.463 -0.4932 -64.9999 77.0831 73.5969 0.7333 -45.8593 -2.6451 -0.697236 33.3189 7.41407 -8.367 -8.2066 0.5982 -13.3571 -22.416 -10.5584 -2.1923 -43.463 -0.4931 45.4491 73.1182 -54.6314 -0.7333 -45.8593 -2.6451 1.68264 39.4381 -4.55895 
-0.852755 -1.41987 -8.12696 -180 -80.3153 -180 0 -1.186 -1.5018 0.124835 0.827937 -0.278736 0 9.964 0.2134 0.253736 1.65527 -0.559362 0 13.134 -3.2573 0.253736 1.65527 -0.559362 2.22045e-016 20.686 -1.6905 12.9993 -0.975134 0.223632 1.77636e-015 7.238 -0.1237 11.0001 -0.545539 0.105819 1.7069 20.075 5.0056 -1.1542 -3.35943 -1.32567 13.6458 -0.047 -4.849 -77.9673 2.18691 -8.03121 28.3255 -0.9759 2.2888 0.709065 7.96298 -28.5225 22.1583 -0.53 10.8316 -43.6016 19.1776 17.5165 0.786 0.112 2.5817 8.82781e-032 -1.59028e-015 3.18055e-015 0.3601 -0.878 4.2331 -4.35499e-007 -2.97833e-007 -6.05765e-006 1.8127 -1.216 2.2227 -1.59028e-015 -2.38542e-015 -6.36111e-015 0.9571 1.114 1.7695 8.82781e-032 -1.59028e-015 3.18055e-015 4.1246 0.487 4.1451 -3.97569e-015 -8.74653e-015 -3.18055e-015 3.4052 -1.454 2.7682 -4.35499e-007 -2.97833e-007 -6.05765e-006 1.4531 -1.795 1.2713 2.38542e-015 -5.96354e-015 -9.54166e-015 5.6954 0.21 2.1184 -3.97569e-015 -8.74653e-015 -3.18055e-015 3.9766 -1.54 2.3863 -4.35499e-007 -2.97833e-007 -6.05765e-006 1.4042 -1.926 1.125 2.38542e-015 -5.96354e-015 -9.54166e-015 2.0956 0.66 -0.3894 8.82781e-032 -1.59028e-015 3.18055e-015 5.0395 -0.09 2.4971 -3.97569e-015 -8.74653e-015 -3.18055e-015 3.7921 -1.552 1.4806 -4.35499e-007 -2.97833e-007 -6.05765e-006 1.4655 -1.808 0.9609 2.38542e-015 -5.96354e-015 -9.54166e-015 4.9141 -1.269 0.3591 -3.97569e-015 -8.74653e-015 -3.18055e-015 3.1477 -1.685 0.8462 -4.35499e-007 -2.97833e-007 -6.05765e-006 0.8055 -1.585 0.7955 2.38542e-015 -5.96354e-015 -9.54166e-015 -1.7069 20.075 5.0056 -16.2838 -7.71652 12.7997 -13.6458 -0.047 -4.849 67.5819 -2.57742 18.2354 -28.3255 -0.9759 2.2888 3.27369 15.9494 61.6103 -22.1583 -0.53 10.8316 59.3448 15.9775 10.0761 -0.786 0.112 2.5817 2.92883e-007 1.8355e-006 2.27491e-007 -0.3601 -0.878 4.2331 3.96388e-007 1.24973e-007 9.70641e-008 -1.8127 -1.216 2.2227 7.92775e-007 2.49946e-007 1.94128e-007 -0.9571 1.114 1.7695 -0 0 3.18055e-015 -4.1246 0.487 4.1451 2.92883e-007 1.8355e-006 2.27491e-007 -3.4052 -1.454 2.7682 3.96388e-007 1.24973e-007 9.70641e-008 -1.4531 -1.795 1.2713 7.92775e-007 2.49946e-007 1.94128e-007 -5.6954 0.21 2.1184 2.92883e-007 1.8355e-006 2.27491e-007 -3.9766 -1.54 2.3863 3.96388e-007 1.24973e-007 9.70641e-008 -1.4042 -1.926 1.125 7.92775e-007 2.49946e-007 1.94128e-007 -2.0956 0.66 -0.3894 -0 0 3.18055e-015 -5.0395 -0.09 2.4971 2.92883e-007 1.8355e-006 2.27491e-007 -3.7921 -1.552 1.4806 3.96388e-007 1.24973e-007 9.70641e-008 -1.4655 -1.808 0.9609 7.92775e-007 2.49946e-007 1.94128e-007 -4.9141 -1.269 0.3592 2.92883e-007 1.8355e-006 2.27491e-007 -3.1477 -1.685 0.8462 3.96388e-007 1.24973e-007 9.70641e-008 -0.8055 -1.585 0.7955 7.92775e-007 2.49946e-007 1.94128e-007 8.367 -8.2066 0.5982 10.6037 -24.7975 13.0339 2.1923 -43.463 -0.4932 -64.9929 77.0821 73.585 0.7333 -45.8593 -2.6451 -0.853718 33.0377 7.43377 -8.367 -8.2066 0.5982 -13.2349 -23.0338 -10.383 -2.1923 -43.463 -0.4931 45.4448 73.1168 -54.6229 -0.7333 -45.8593 -2.6451 2.12086 39.1541 -4.80988 
